{
	"asset":{
		"generator":"Khronos glTF Blender I/O v4.0.44",
		"version":"2.0"
	},
	"scene":0,
	"scenes":[
		{
			"name":"Scene",
			"nodes":[
				6
			]
		}
	],
	"nodes":[
		{
			"mesh":0,
			"name":"Object_4"
		},
		{
			"mesh":1,
			"name":"Object_8"
		},
		{
			"mesh":2,
			"name":"Object_9"
		},
		{
			"children":[
				0,
				1,
				2
			],
			"name":"Fontain_1",
			"rotation":[
				0,
				-0.7071066498756409,
				0.70710688829422,
				3.090861255827804e-08
			]
		},
		{
			"children":[
				3
			],
			"name":"GLTF_SceneRootNode",
			"rotation":[
				0.70710688829422,
				0,
				0,
				0.7071066498756409
			]
		},
		{
			"children":[
				4
			],
			"name":"root"
		},
		{
			"children":[
				5
			],
			"name":"Sketchfab_model",
			"rotation":[
				-0.70710688829422,
				0,
				0,
				0.7071066498756409
			]
		}
	],
	"materials":[
		{
			"doubleSided":true,
			"name":"Fountain",
			"pbrMetallicRoughness":{
				"baseColorTexture":{
					"index":0
				},
				"metallicFactor":0,
				"roughnessFactor":0.5
			}
		},
		{
			"doubleSided":true,
			"name":"Patio",
			"pbrMetallicRoughness":{
				"baseColorTexture":{
					"index":1
				},
				"metallicFactor":0,
				"roughnessFactor":0.5
			}
		},
		{
			"doubleSided":true,
			"name":"Material.001",
			"pbrMetallicRoughness":{
				"baseColorTexture":{
					"index":2
				},
				"metallicFactor":0,
				"roughnessFactor":0.5
			}
		}
	],
	"meshes":[
		{
			"name":"Object_0",
			"primitives":[
				{
					"attributes":{
						"COLOR_0":0,
						"POSITION":1,
						"NORMAL":2,
						"TEXCOORD_0":3,
						"TEXCOORD_1":4,
						"TEXCOORD_2":5,
						"TEXCOORD_3":6
					},
					"indices":7,
					"material":0
				}
			]
		},
		{
			"name":"Object_4",
			"primitives":[
				{
					"attributes":{
						"POSITION":8,
						"NORMAL":9,
						"TEXCOORD_0":10,
						"TEXCOORD_1":11,
						"TEXCOORD_2":12
					},
					"indices":13,
					"material":1
				}
			]
		},
		{
			"name":"Object_5",
			"primitives":[
				{
					"attributes":{
						"POSITION":14,
						"NORMAL":15,
						"TEXCOORD_0":16,
						"TEXCOORD_1":17,
						"TEXCOORD_2":18,
						"TEXCOORD_3":19
					},
					"indices":20,
					"material":2
				}
			]
		}
	],
	"textures":[
		{
			"sampler":0,
			"source":0
		},
		{
			"sampler":0,
			"source":1
		},
		{
			"sampler":0,
			"source":2
		}
	],
	"images":[
		{
			"mimeType":"image/png",
			"name":"center1",
			"uri":"center1.png"
		},
		{
			"mimeType":"image/png",
			"name":"gray1",
			"uri":"gray1.png"
		},
		{
			"mimeType":"image/png",
			"name":"green1",
			"uri":"green1.png"
		}
	],
	"accessors":[
		{
			"bufferView":0,
			"componentType":5126,
			"count":31828,
			"type":"VEC4"
		},
		{
			"bufferView":1,
			"componentType":5126,
			"count":31828,
			"max":[
				2.6735546588897705,
				2.66652512550354,
				-0.133386492729187
			],
			"min":[
				-2.672999382019043,
				-2.6641783714294434,
				-2.0323126316070557
			],
			"type":"VEC3"
		},
		{
			"bufferView":2,
			"componentType":5126,
			"count":31828,
			"type":"VEC3"
		},
		{
			"bufferView":3,
			"componentType":5126,
			"count":31828,
			"type":"VEC2"
		},
		{
			"bufferView":4,
			"componentType":5126,
			"count":31828,
			"type":"VEC2"
		},
		{
			"bufferView":5,
			"componentType":5126,
			"count":31828,
			"type":"VEC2"
		},
		{
			"bufferView":6,
			"componentType":5126,
			"count":31828,
			"type":"VEC2"
		},
		{
			"bufferView":7,
			"componentType":5123,
			"count":106233,
			"type":"SCALAR"
		},
		{
			"bufferView":8,
			"componentType":5126,
			"count":892,
			"max":[
				8.260863304138184,
				8.260863304138184,
				0
			],
			"min":[
				-8.260863304138184,
				-8.260863304138184,
				-0.1536770612001419
			],
			"type":"VEC3"
		},
		{
			"bufferView":9,
			"componentType":5126,
			"count":892,
			"type":"VEC3"
		},
		{
			"bufferView":10,
			"componentType":5126,
			"count":892,
			"type":"VEC2"
		},
		{
			"bufferView":11,
			"componentType":5126,
			"count":892,
			"type":"VEC2"
		},
		{
			"bufferView":12,
			"componentType":5126,
			"count":892,
			"type":"VEC2"
		},
		{
			"bufferView":13,
			"componentType":5123,
			"count":2442,
			"type":"SCALAR"
		},
		{
			"bufferView":14,
			"componentType":5126,
			"count":853,
			"max":[
				8.102133750915527,
				8.10579776763916,
				0
			],
			"min":[
				-8.102265357971191,
				-8.102132797241211,
				-1.2638849020004272
			],
			"type":"VEC3"
		},
		{
			"bufferView":15,
			"componentType":5126,
			"count":853,
			"type":"VEC3"
		},
		{
			"bufferView":16,
			"componentType":5126,
			"count":853,
			"type":"VEC2"
		},
		{
			"bufferView":17,
			"componentType":5126,
			"count":853,
			"type":"VEC2"
		},
		{
			"bufferView":18,
			"componentType":5126,
			"count":853,
			"type":"VEC2"
		},
		{
			"bufferView":19,
			"componentType":5126,
			"count":853,
			"type":"VEC2"
		},
		{
			"bufferView":20,
			"componentType":5123,
			"count":2685,
			"type":"SCALAR"
		}
	],
	"bufferViews":[
		{
			"buffer":0,
			"byteLength":509248,
			"byteOffset":0,
			"target":34962
		},
		{
			"buffer":0,
			"byteLength":381936,
			"byteOffset":509248,
			"target":34962
		},
		{
			"buffer":0,
			"byteLength":381936,
			"byteOffset":891184,
			"target":34962
		},
		{
			"buffer":0,
			"byteLength":254624,
			"byteOffset":1273120,
			"target":34962
		},
		{
			"buffer":0,
			"byteLength":254624,
			"byteOffset":1527744,
			"target":34962
		},
		{
			"buffer":0,
			"byteLength":254624,
			"byteOffset":1782368,
			"target":34962
		},
		{
			"buffer":0,
			"byteLength":254624,
			"byteOffset":2036992,
			"target":34962
		},
		{
			"buffer":0,
			"byteLength":212466,
			"byteOffset":2291616,
			"target":34963
		},
		{
			"buffer":0,
			"byteLength":10704,
			"byteOffset":2504084,
			"target":34962
		},
		{
			"buffer":0,
			"byteLength":10704,
			"byteOffset":2514788,
			"target":34962
		},
		{
			"buffer":0,
			"byteLength":7136,
			"byteOffset":2525492,
			"target":34962
		},
		{
			"buffer":0,
			"byteLength":7136,
			"byteOffset":2532628,
			"target":34962
		},
		{
			"buffer":0,
			"byteLength":7136,
			"byteOffset":2539764,
			"target":34962
		},
		{
			"buffer":0,
			"byteLength":4884,
			"byteOffset":2546900,
			"target":34963
		},
		{
			"buffer":0,
			"byteLength":10236,
			"byteOffset":2551784,
			"target":34962
		},
		{
			"buffer":0,
			"byteLength":10236,
			"byteOffset":2562020,
			"target":34962
		},
		{
			"buffer":0,
			"byteLength":6824,
			"byteOffset":2572256,
			"target":34962
		},
		{
			"buffer":0,
			"byteLength":6824,
			"byteOffset":2579080,
			"target":34962
		},
		{
			"buffer":0,
			"byteLength":6824,
			"byteOffset":2585904,
			"target":34962
		},
		{
			"buffer":0,
			"byteLength":6824,
			"byteOffset":2592728,
			"target":34962
		},
		{
			"buffer":0,
			"byteLength":5370,
			"byteOffset":2599552,
			"target":34963
		}
	],
	"samplers":[
		{
			"magFilter":9729,
			"minFilter":9987
		}
	],
	"buffers":[
		{
			"byteLength":2604924,
			"uri":"Fountain.bin"
		}
	]
}
